# xmcd
#
# Track frame offsets:
# 182
# 20077
# 42830
# 64922
# 77122
# 98370
# 117732
# 137075
# 154520
# 168707
#
# Disc length: 2499 seconds
#
#
# Revision: 6
# Processed by: cddbd v1.5.2PL0 Copyright (c) Steve Scherf et al.
# Submitted via: FreeRIP 2.00
#
DISCID=8209c10a
DTITLE=Robert Křestan and Druhá tráva - Starodavný svět
DYEAR=1994
DGENRE=Bluegrass
TTITLE0=Víla
TTITLE1=Krvavá Marie
TTITLE2=Za poslední lodí
TTITLE3=Windy (instrumental)
TTITLE4=Odpočiň si, Sáro
TTITLE5=Ossian (Wells of Old Ireland
TTITLE6=Na plese vévodkyně z Richmondu
TTITLE7=Ichisah!
TTITLE8=Kořeny
TTITLE9=Ukolébavka pro mne
EXTD=ID3G:  89
EXTT0=
EXTT1=
EXTT2=
EXTT3=
EXTT4=
EXTT5=Wells Of Old Ireland\n
EXTT6=
EXTT7=
EXTT8=
EXTT9=
PLAYORDER=
